HIERARCHY
ROOT Hips
{
  OFFSET -69.4423 88.0299 51.6846
  CHANNELS 6 Xposition Yposition Zposition Zrotation Xrotation Yrotation
  JOINT Spine
  {
    OFFSET 12.0259 -0.162853 1.93176e-005
    CHANNELS 3 Zrotation Xrotation Yrotation
    JOINT Spine1
    {
      OFFSET 15.3169 -0.0121909 0
      CHANNELS 3 Zrotation Xrotation Yrotation
      JOINT Spine2
      {
        OFFSET 15.3176 -0.0121922 0
        CHANNELS 3 Zrotation Xrotation Yrotation
        JOINT Neck
        {
          OFFSET 19.9142 1.56236 0
          CHANNELS 3 Zrotation Xrotation Yrotation
          JOINT Head
          {
            OFFSET 6.92646 0 0
            CHANNELS 3 Zrotation Xrotation Yrotation
            End Site
            {
              OFFSET 20.7666 0 0
            }
          }
          JOINT LeftShoulder
          {
            OFFSET -4.94072 -1.14703 8.14416
            CHANNELS 3 Zrotation Xrotation Yrotation
            JOINT LeftArm
            {
              OFFSET 14.108 0 -2.74767e-005
              CHANNELS 3 Zrotation Xrotation Yrotation
              JOINT LeftForeArm
              {
                OFFSET 28.5802 -0.0783412 -0.0284884
                CHANNELS 3 Zrotation Xrotation Yrotation
                JOINT LeftHand
                {
                  OFFSET 27.092 0 0
                  CHANNELS 3 Zrotation Xrotation Yrotation
                  End Site
                  {
                    OFFSET 9.55928 -0.186424 0.145352
                  }
                }
              }
            }
          }
          JOINT RightShoulder
          {
            OFFSET -7.15748 -1.33027 -6.24935
            CHANNELS 3 Zrotation Xrotation Yrotation
            JOINT RightArm
            {
              OFFSET 14.108 0 1.82997e-005
              CHANNELS 3 Zrotation Xrotation Yrotation
              JOINT RightForeArm
              {
                OFFSET 28.5802 -0.0707221 2.30684e-005
                CHANNELS 3 Zrotation Xrotation Yrotation
                JOINT RightHand
                {
                  OFFSET 27.092 0 -1.30073e-005
                  CHANNELS 3 Zrotation Xrotation Yrotation
                  End Site
                  {
                    OFFSET 9.55929 -0.186417 -0.145354
                  }
                }
              }
            }
          }
        }
      }
    }
  }
  JOINT LeftUpLeg
  {
    OFFSET 0.00499725 -0.534999 8.837
    CHANNELS 3 Zrotation Xrotation Yrotation
    JOINT LeftLeg
    {
      OFFSET 39.9035 -0.00124594 0.000252775
      CHANNELS 3 Zrotation Xrotation Yrotation
      JOINT LeftFoot
      {
        OFFSET 39.6689 0 0
        CHANNELS 3 Zrotation Xrotation Yrotation
        JOINT LeftToe
        {
          OFFSET 10.1624 13.6296 0
          CHANNELS 3 Zrotation Xrotation Yrotation
          End Site
          {
            OFFSET 8.38147 0 0
          }
        }
      }
    }
  }
  JOINT RightUpLeg
  {
    OFFSET 0.00499725 -0.535 -8.837
    CHANNELS 3 Zrotation Xrotation Yrotation
    JOINT RightLeg
    {
      OFFSET 39.9036 -0.000268477 0.000106433
      CHANNELS 3 Zrotation Xrotation Yrotation
      JOINT RightFoot
      {
        OFFSET 39.6689 1.17892e-005 0
        CHANNELS 3 Zrotation Xrotation Yrotation
        JOINT RightToe
        {
          OFFSET 10.1624 13.6296 0
          CHANNELS 3 Zrotation Xrotation Yrotation
          End Site
          {
            OFFSET 8.38147 0 0
          }
        }
      }
    }
  }
}
MOTION
Frames:	15
Frame Time:	0.0333333
-62.1672 88.3697 -65.0065 92.5373 85.0119 -1.73454 1.2953 1.87339 -0.0104595 2.59303 3.74654 -0.0632025 2.59302 3.74654 -0.063217 -11.1518 -1.57285 -11.713 56.6073 1.21111 11.5256 -170.791 -3.01585 -94.387 -8.09899 7.38852 85.5919 -15.3863 1.33042 -10.5914 3.21399 -71.6222 5.40347 -170.617 -4.55326 73.3451 -13.887 2.75556 -82.5354 -25.2703 -3.26704 15.4614 3.10543 83.529 -2.9705 -15.0091 1.98552 179.66 -11.9444 0.76636 -1.68462 -12.9868 5.97814 1.60478 90 2.18663e-015 1.59028e-015 1.54637 -0.179943 -179.165 -45.5054 -0.219682 -0.430419 -18.8992 4.31221 2.81633 90 -7.95139e-015 -3.97569e-015 
-61.6443 88.6506 -61.8348 87.9304 84.8585 4.16121 1.40878 1.63829 -0.234059 2.82599 3.27079 -0.508538 2.82599 3.27079 -0.508544 -11.2191 -1.33159 -11.7398 56.2411 1.49576 11.2283 -170.709 -2.76988 -94.5181 -12.8766 8.15035 86.0666 -16.7565 1.48523 -11.3431 3.67933 -74.7576 5.92794 -170.512 -4.29946 73.2994 -14.676 1.5634 -82.9505 -25.0185 -3.19572 15.327 2.5806 82.9644 -2.46678 -11.5693 3.24594 177.839 -10.4178 0.818131 -1.64494 -12.3611 6.85805 1.79956 90 -1.03368e-014 -6.36111e-015 -3.52334 -1.55943 178.511 -54.3397 -0.0794316 -0.449221 -19.4815 4.55256 2.93374 90 -1.59028e-015 -1.19271e-015 
-61.1832 88.8512 -58.6696 80.7008 84.8015 12.4325 1.56716 1.34661 -0.376718 3.14446 2.68285 -0.790314 3.14445 2.68285 -0.790328 -11.4748 -1.01737 -11.8436 56.5043 1.8266 10.7981 -170.366 -2.43027 -94.6656 -16.6465 7.53062 85.9621 -17.295 1.53844 -11.6553 4.57139 -76.6637 6.84663 -170.221 -4.06346 73.1455 -14.7379 0.681407 -83.1799 -24.6103 -3.09433 15.0989 2.16212 81.5301 -1.99636 -7.78371 3.505 176.12 -8.84715 0.865862 -1.59902 -10.8496 7.02805 1.66143 90 -3.18055e-015 -3.18055e-015 -8.02507 -2.98127 176.328 -60.9792 0.0345878 -0.391173 -17.588 7.33247 3.82921 90 -3.18055e-015 3.97569e-015 
-60.8922 88.9668 -55.652 75.2559 85.0955 18.2905 1.60718 1.09352 -0.410235 3.22303 2.17556 -0.851066 3.22302 2.17555 -0.851073 -11.0947 -0.990365 -11.8079 56.4211 1.76654 10.5934 -170.675 -2.20242 -94.6775 -20.418 6.77219 85.2927 -17.7951 1.58877 -11.9265 5.90027 -78.8654 8.39695 -170.61 -3.9691 73.1622 -14.0618 -0.415115 -83.8682 -24.8075 -3.14443 15.213 2.12373 81.2796 -1.9963 -4.55445 3.75152 175.163 -7.35549 0.903751 -1.55405 -9.46996 7.45893 1.60867 90 -3.57812e-015 1.59028e-015 -12.5748 -4.31961 174.855 -65.1194 0.0661141 -0.295489 -15.5206 8.12193 3.71879 90 -2.22639e-014 -1.51076e-014 
-60.663 88.932 -52.7544 70.5326 85.6415 23.3798 1.63499 0.763633 -0.43207 3.27613 1.51508 -0.885733 3.27612 1.51507 -0.885739 -10.8182 -0.932736 -11.9614 56.4152 1.92176 10.6102 -170.849 -1.99076 -94.8329 -20.6629 4.83292 84.1967 -17.7325 1.57775 -11.9379 5.63013 -77.5804 7.9767 -170.921 -3.92745 72.998 -13.4702 -1.93341 -84.6624 -25.733 -3.37184 15.7145 2.7709 83.0362 -2.69648 -3.05275 3.83717 174.477 -8.90915 0.966487 -1.45175 -6.57448 7.67302 1.39133 90 -8.54774e-015 -1.27222e-014 -16.8596 -5.24702 173.667 -66.8109 0.0374603 -0.194613 -12.4217 7.85581 3.0171 90 -2.54444e-014 -3.02153e-014 
-60.4632 88.7124 -49.9212 66.2071 86.1992 28.1415 1.58985 0.415754 -0.464614 3.18316 0.81892 -0.940478 3.18315 0.818916 -0.940493 -10.8526 -0.820816 -11.9934 56.7906 2.05534 10.478 -170.743 -1.7747 -94.9041 -21.0495 3.36553 83.2663 -18.201 1.64239 -12.2291 5.79749 -77.2014 8.00727 -170.913 -3.87081 72.9649 -12.8002 -3.3332 -85.3279 -25.853 -3.40433 15.7783 3.48948 84.3442 -3.394 -2.00632 4.34095 173.846 -10.7722 1.02339 -1.32677 -4.0558 8.39653 1.27129 90 -7.95139e-016 7.95139e-015 -20.8361 -5.55738 172.692 -66.415 -0.0346485 -0.0841279 -7.75632 6.68914 1.84929 90 -7.95139e-015 -6.36111e-015 
-60.3071 88.3582 -47.1798 60.5892 86.895 34.101 1.56815 0.0614392 -0.469907 3.13678 0.110479 -0.94116 3.13678 0.110478 -0.941168 -11.3699 -0.585726 -11.8149 57.281 2.07862 9.94208 -170.133 -1.47368 -94.7988 -22.5467 1.94628 82.1444 -19.015 1.7563 -12.7029 6.73167 -79.1117 9.03862 -170.395 -3.74406 73.1445 -12.7852 -4.74431 -85.6987 -26.0296 -3.44168 15.8624 3.74946 84.7813 -3.65412 -1.44828 4.58908 173.37 -13.5805 1.06919 -1.18021 -0.65204 8.94337 1.00938 90 2.78299e-015 3.18055e-015 -24.3418 -5.65082 172.035 -63.8899 -0.0878285 0.0253612 -3.26335 5.8938 0.959858 90 1.11319e-014 1.59028e-015 
-60.2159 87.9701 -44.5105 61.9221 87.2132 33.2987 1.49176 -0.180125 -0.517851 2.98186 -0.373185 -1.03068 2.98185 -0.373183 -1.0307 -11.3893 -0.534602 -12.0634 56.8667 2.12198 9.99205 -170.076 -1.36153 -95.1214 -23.8009 0.733991 81.1612 -20.0648 1.91388 -13.3076 7.89081 -80.4466 10.1587 -170.421 -3.79423 72.9257 -12.9351 -6.19429 -85.9528 -25.9847 -3.42785 15.8341 3.50807 84.4371 -3.40816 -0.31706 4.48478 172.638 -14.4919 1.09258 -1.09773 1.15115 8.65874 0.785117 90 0 -4.77083e-015 -27.402 -4.97663 171.638 -59.2653 -0.0915454 0.139363 -1.63766 6.86983 0.904819 90 -1.11319e-014 -1.74931e-014 
-60.2026 87.8953 -41.8811 62.5341 87.8653 33.3441 1.41528 -0.46596 -0.591813 2.82586 -0.945886 -1.17182 2.82587 -0.945895 -1.17183 -11.5823 -0.466006 -11.9364 56.2967 1.92992 9.68022 -169.83 -1.1726 -95.0851 -25.2362 -0.487857 79.9796 -21.2333 2.09714 -13.9715 8.17108 -81.4042 10.5187 -170.241 -3.77497 73.0589 -12.5194 -7.13102 -86.0034 -25.3655 -3.27414 15.4946 3.23503 83.912 -3.09451 2.17248 4.20259 171.896 -12.5642 1.10884 -1.08083 1.36618 9.29129 0.734479 90 -3.16068e-014 6.36111e-015 -29.4527 -4.09599 171.265 -52.4659 -0.0792245 0.280634 -0.945539 9.31924 1.24025 90 -1.35174e-014 -3.18055e-015 
-60.2753 87.9352 -39.1853 74.0118 88.1989 22.1768 1.34989 -0.648743 -0.62042 2.69295 -1.31141 -1.22539 2.69294 -1.31142 -1.2254 -11.8282 -0.289963 -11.9548 55.9551 2.07903 9.47942 -169.515 -0.938232 -95.2088 -26.7988 -1.55065 78.782 -22.5002 2.30953 -14.6777 10.9846 -83.0468 13.3212 -169.976 -3.67754 73.0346 -11.7671 -7.298 -86.1002 -24.6958 -3.1182 15.142 2.98142 83.4012 -2.8832 5.12632 3.47791 171.462 -9.33342 1.11233 -1.12432 1.39636 8.82143 0.642777 90 -2.88238e-014 2.38542e-015 -30.6549 -2.84429 171.323 -44.134 -0.0615576 0.416777 -2.79777 10.4654 1.93378 90 -3.18055e-015 9.54166e-015 
-60.4535 87.6773 -36.4426 82.5228 88.3379 13.6472 1.33633 -0.79857 -0.594108 2.66474 -1.61027 -1.16942 2.66473 -1.61027 -1.16943 -12.1126 -0.170035 -11.8527 55.9069 2.13569 9.29776 -169.186 -0.769307 -95.2192 -27.922 -2.27693 77.6728 -24.0131 2.57976 -15.5121 11.7022 -83.856 13.9936 -169.672 -3.60868 73.1336 -10.5362 -7.48795 -86.1665 -23.5168 -2.85138 14.501 3.4301 83.9409 -3.28546 7.80832 2.97721 171.442 -7.13887 1.11241 -1.14379 1.5766 8.39635 0.570366 90 6.36111e-015 -3.97569e-015 -30.9754 -1.48882 171.752 -34.4864 -0.00633397 0.518884 -8.45092 9.85258 3.17297 90 -7.95139e-015 -3.18055e-015 
-60.716 87.4555 -33.5894 91.6756 88.629 4.48796 1.31845 -0.980729 -0.565132 2.62775 -1.97367 -1.10763 2.62774 -1.97367 -1.10765 -12.4039 -0.0153635 -11.7905 55.8728 2.21542 9.04387 -168.842 -0.584234 -95.2655 -28.8367 -2.93832 76.696 -25.3835 2.83685 -16.2603 12.1325 -84.7687 14.4525 -169.352 -3.49401 73.185 -8.77824 -7.4284 -86.1526 -22.6716 -2.66678 14.035 2.82841 82.5421 -2.68488 9.66756 1.2132 171.612 -6.23576 1.11192 -1.22998 2.14655 6.72329 0.505627 90 -9.54166e-015 -7.15625e-015 -30.7428 1.38016 172.259 -26.9774 -0.0286639 0.65377 -7.57527 9.30382 2.88958 90 3.27995e-015 7.95139e-015 
-60.9128 87.0865 -30.6409 94.5441 89.0091 2.14261 1.30374 -1.13367 -0.635588 2.59557 -2.28096 -1.24544 2.59557 -2.28097 -1.24545 -12.2149 0.0184437 -11.713 55.5864 2.0714 8.74977 -168.991 -0.428239 -95.2787 -29.9825 -3.19907 75.966 -26.5978 3.07068 -16.9055 14.6453 -85.6376 16.8967 -169.52 -3.3646 73.263 -7.56429 -7.64767 -86.1173 -22.1631 -2.55728 13.7527 2.45459 81.6965 -2.34042 13.2349 -1.02082 171.162 -2.50642 1.11334 -1.39709 1.39607 5.55209 0.454052 90 -1.0138e-014 -3.18055e-015 -30.8096 3.57788 171.889 -24.0649 -0.0594005 0.742883 -2.98493 8.09824 1.66942 90 -1.68967e-015 6.36111e-015 
-61.2723 86.8279 -27.7193 96.7535 89.0685 -0.01523 1.24428 -1.24691 -0.609971 2.47611 -2.50622 -1.19299 2.47611 -2.50623 -1.19299 -12.2623 0.171668 -11.8135 55.9106 2.17374 8.46211 -168.92 -0.263723 -95.4517 -30.4914 -3.33815 75.7351 -27.3794 3.23097 -17.3286 15.5319 -85.9799 17.8093 -169.461 -3.23366 73.1394 -5.86657 -7.91518 -85.8402 -21.1735 -2.34287 13.1878 1.75659 79.5228 -1.5881 15.4242 -2.63474 171.531 -1.83429 1.11925 -1.40559 1.51832 5.14802 0.392506 90 4.37326e-015 -5.56597e-015 -30.9724 2.33455 171.9 -23.8783 -0.0596467 0.722806 -5.1326 4.2105 1.04827 90 -8.64713e-015 9.54166e-015 
-61.8001 86.7009 -24.4724 83.3755 88.7235 13.3395 1.27696 -1.22074 -0.58134 2.54235 -2.45359 -1.13553 2.54235 -2.45359 -1.13554 -12.3596 0.216999 -11.5777 56.2058 1.92138 7.99137 -168.813 -0.164739 -95.2559 -30.3268 -3.53972 75.9785 -27.8928 3.34146 -17.6063 13.9644 -85.6255 16.2089 -169.335 -3.11978 73.3366 -4.34189 -7.78256 -85.6024 -20.414 -2.193 12.7694 1.54836 78.3271 -1.3733 17.6171 -3.78966 171.984 -1.82768 1.136 -1.37438 0.90065 5.03006 0.371914 90 7.55382e-015 1.59028e-015 -30.568 1.51008 172.502 -25.914 -0.0519574 0.664138 -10.2911 2.17913 1.0106 90 -1.44119e-014 1.35174e-014 
